<svg class="svg__sprite" xmlns="http://www.w3.org/2000/svg">
    <symbol id="dollar" viewBox="0 0 295.82 295.82">
        <path d="M147.91,0C66.124,0,0,66.124,0,147.91s66.124,147.91,147.91,147.91s147.91-66.124,147.91-147.91S229.696,0,147.91,0z     M147.91,278.419c-71.345,0-130.509-59.164-130.509-130.509S76.565,17.401,147.91,17.401S278.419,76.565,278.419,147.91    S219.255,278.419,147.91,278.419z"/>
        <path d="m184.453,116.588c0,5.22 3.48,8.701 8.701,8.701 5.22,0 8.701-3.48 8.701-8.701 0-20.342-19.751-36.351-45.243-39.379v-7.605c0-5.22-3.48-8.701-8.701-8.701-5.22,0-8.701,3.48-8.701,8.701v7.605c-25.493,3.045-45.243,19.037-45.243,39.379s19.751,36.351 45.243,39.379v45.087c-15.383-2.558-27.842-11.537-27.842-21.821 0-5.22-3.48-8.701-8.701-8.701-5.22,0-8.701,3.48-8.701,8.701 0,20.342 19.751,36.351 45.243,39.379v7.604c0,5.22 3.48,8.701 8.701,8.701 5.22,0 8.701-3.48 8.701-8.701v-7.605c25.493-3.045 45.243-19.037 45.243-39.379s-19.751-36.351-45.243-39.379v-45.086c15.383,2.558 27.842,11.537 27.842,21.821zm-73.085,0c0-10.284 12.459-19.263 27.842-21.821v43.642c-15.383-2.558-27.842-11.537-27.842-21.821zm73.085,62.644c0,10.284-12.459,19.263-27.842,21.821v-43.642c15.383,2.558 27.842,11.538 27.842,21.821z"/>
    </symbol>
    <symbol id="clock" viewBox="0 0 50 50">
        <path d="M 25 2 C 12.309295 2 2 12.309295 2 25 C 2 37.690705 12.309295 48 25 48 C 37.690705 48 48 37.690705 48 25 C 48 12.309295 37.690705 2 25 2 z M 25 4 C 36.609824 4 46 13.390176 46 25 C 46 36.609824 36.609824 46 25 46 C 13.390176 46 4 36.609824 4 25 C 4 13.390176 13.390176 4 25 4 z M 24.984375 6.9863281 A 1.0001 1.0001 0 0 0 24 8 L 24 22.173828 A 3 3 0 0 0 22 25 A 3 3 0 0 0 22.294922 26.291016 L 16.292969 32.292969 A 1.0001 1.0001 0 1 0 17.707031 33.707031 L 23.708984 27.705078 A 3 3 0 0 0 25 28 A 3 3 0 0 0 28 25 A 3 3 0 0 0 26 22.175781 L 26 8 A 1.0001 1.0001 0 0 0 24.984375 6.9863281 z"/>
    </symbol>
    <symbol id="check" viewBox="0 0 50 50">
        <path d="M 25 2 C 12.317 2 2 12.317 2 25 C 2 37.683 12.317 48 25 48 C 37.683 48 48 37.683 48 25 C 48 20.44 46.660281 16.189328 44.363281 12.611328 L 42.994141 14.228516 C 44.889141 17.382516 46 21.06 46 25 C 46 36.579 36.579 46 25 46 C 13.421 46 4 36.579 4 25 C 4 13.421 13.421 4 25 4 C 30.443 4 35.393906 6.0997656 39.128906 9.5097656 L 40.4375 7.9648438 C 36.3525 4.2598437 30.935 2 25 2 z M 43.236328 7.7539062 L 23.914062 30.554688 L 15.78125 22.96875 L 14.417969 24.431641 L 24.083984 33.447266 L 44.763672 9.046875 L 43.236328 7.7539062 z"/>
    </symbol>
</svg>